<?xml version="1.0" encoding="UTF-8"?>
<svg version="1.1" xmlns="http://www.w3.org/2000/svg" width="327" height="361">
<path d="M0 0 C2.24419495 0.68876756 4.48916493 1.37501421 6.73484802 2.05891418 C12.62287086 3.85919454 18.50013053 5.69232974 24.37554932 7.53326416 C30.20730811 9.35466964 36.04819602 11.14623715 41.88867188 12.93945312 C48.7619266 15.05138349 55.63358755 17.16795147 62.49819946 19.30783081 C73.37095554 22.69580799 84.25279449 26.03490874 95.18310547 29.23291016 C97.19575903 29.82555719 99.20836897 30.41835238 101.22093201 31.01130676 C104.9468614 32.10851367 108.67788373 33.18525684 112.41297913 34.2507782 C114.07235132 34.73839681 115.73149941 35.22677894 117.39038086 35.71606445 C118.13213751 35.92118715 118.87389416 36.12630985 119.63812828 36.33764839 C124.39884256 37.7672614 127.20700284 39.62824241 130.37109375 43.45703125 C130.98632812 45.68823242 130.98632812 45.68823242 130.96484375 48 C130.96460205 48.89050049 130.96436035 49.78100098 130.96411133 50.69848633 C130.93341553 51.67068115 130.90271973 52.64287598 130.87109375 53.64453125 C130.85264404 54.68697998 130.83419434 55.72942871 130.81518555 56.8034668 C128.65337256 138.87494006 110.55668157 230.49480653 38.17382812 315.77099609 C28.77540622 324.56101528 18.20031032 331.57059735 7.37109375 338.45703125 C6.75862793 338.84810059 6.14616211 339.23916992 5.51513672 339.64208984 C-7.40542196 347.77507069 -24.97716142 357.96066451 -40.62890625 354.45703125 C-59.38902127 348.48933331 -77.41593927 337.85199739 -92.62890625 325.45703125 C-93.63695313 324.65136719 -94.645 323.84570312 -95.68359375 323.015625 C-109.61020002 311.69543072 -122.0168125 298.92171386 -132.62890625 284.45703125 C-133.27400146 283.59513184 -133.27400146 283.59513184 -133.93212891 282.71582031 C-139.75191651 274.93730435 -144.94879959 266.94869795 -149.57519531 258.39550781 C-150.69779819 256.33029307 -151.84716256 254.28113965 -152.99609375 252.23046875 C-177.70868536 207.44102015 -188.61127914 155.77902238 -194.62890625 105.45703125 C-194.71577698 104.77382812 -194.80264771 104.090625 -194.89215088 103.38671875 C-196.4690193 90.9027417 -197.00157641 78.54253708 -196.99951172 65.96240234 C-197.00398366 62.9040945 -197.0407546 59.84712598 -197.078125 56.7890625 C-197.08397764 54.83464028 -197.08795739 52.88021133 -197.08984375 50.92578125 C-197.10421478 50.01654907 -197.11858582 49.10731689 -197.13339233 48.17053223 C-197.08841564 42.03515205 -197.08841564 42.03515205 -195.09667969 39.52929688 C-191.68947879 38.04884314 -188.23975881 36.88621235 -184.68359375 35.83203125 C-183.42714302 35.44890778 -183.42714302 35.44890778 -182.14530945 35.05804443 C-179.26721652 34.18298944 -176.38562358 33.3200696 -173.50390625 32.45703125 C-171.42421647 31.82774736 -169.34471509 31.19784057 -167.26538086 30.56738281 C-160.95060696 28.65630461 -154.63192948 26.75835853 -148.31256104 24.86254883 C-143.09238371 23.29640647 -137.87310583 21.72727548 -132.65380859 20.15820312 C-110.84984131 13.60408177 -89.04248747 7.06131134 -67.23161316 0.5302124 C-66.39508744 0.27924931 -65.55856173 0.02828621 -64.69668674 -0.23028183 C-63.0861684 -0.71153865 -61.47459865 -1.18929326 -59.86191463 -1.66324234 C-56.84711128 -2.55227147 -53.88109098 -3.44759345 -50.93991089 -4.55993652 C-34.11536 -10.8369791 -16.25540984 -5.15464857 0 0 Z " fill="#21C9D7" transform="translate(196.62890625,6.54296875)"/>
<path d="M0 0 C2.30810648 80.653526 -15.91451811 176.37610448 -79.96044922 260.11279297 C-93.01535957 273.7939883 -107.06698031 284.86799402 -123 295 C-123.61246582 295.39106934 -124.22493164 295.78213867 -124.85595703 296.18505859 C-137.77651571 304.31803944 -155.34825517 314.50363326 -171 311 C-189.76011502 305.03230206 -207.78703302 294.39496614 -223 282 C-224.00804687 281.19433594 -225.01609375 280.38867188 -226.0546875 279.55859375 C-239.98129377 268.23839947 -252.38790625 255.46468261 -263 241 C-263.43006348 240.42540039 -263.86012695 239.85080078 -264.30322266 239.25878906 C-270.57893375 230.87090237 -275.99479656 222.19950799 -281 213 C-272.55971895 206.21074285 -263.92378626 199.67416919 -255.25 193.1875 C-249.41359679 188.82266245 -243.60236782 184.42640285 -237.8125 180 C-237.10577148 179.46012451 -236.39904297 178.92024902 -235.67089844 178.36401367 C-235.00219727 177.85201416 -234.33349609 177.34001465 -233.64453125 176.8125 C-233.01498535 176.33296875 -232.38543945 175.8534375 -231.73681641 175.359375 C-230.18375662 174.143823 -228.68691341 172.85723008 -227.19921875 171.5625 C-226.47347656 171.046875 -225.74773437 170.53125 -225 170 C-221.21289776 171.26236741 -220.43158778 172.82356946 -218.0625 176 C-206.71758982 190.15360154 -189.94810032 198.9367901 -172 201 C-150.19500872 202.18702543 -131.01452103 198.40982892 -114 184 C-113.030625 183.29875 -112.06125 182.5975 -111.0625 181.875 C-102.44897112 174.50538674 -97.22008856 164.30808517 -93 154 C-92.64035156 153.13375 -92.28070313 152.2675 -91.91015625 151.375 C-87.12190148 138.88032661 -87.13225959 121.76135819 -91 109 C-91.27972656 108.0409375 -91.55945313 107.081875 -91.84765625 106.09375 C-94.35281134 98.061026 -97.22039411 89.93763739 -102.875 83.5625 C-103.57625 82.716875 -104.2775 81.87125 -105 81 C-103.70439671 77.11319014 -101.98869319 76.2641904 -98.6875 73.875 C-97.58582024 73.0691707 -96.48426099 72.26317663 -95.3828125 71.45703125 C-94.81852539 71.04791504 -94.25423828 70.63879883 -93.67285156 70.21728516 C-91.11712076 68.3575546 -88.59025899 66.46000442 -86.0625 64.5625 C-84.57169922 63.44488281 -84.57169922 63.44488281 -83.05078125 62.3046875 C-79.9356125 59.951359 -76.83990464 57.57380042 -73.75 55.1875 C-68.94754899 51.47884823 -64.10987091 47.82054984 -59.25 44.1875 C-52.82441016 39.38385842 -46.44216014 34.52626982 -40.07519531 29.64526367 C-35.13752508 25.86248111 -30.17026488 22.12167015 -25.1875 18.3984375 C-20.36509496 14.7698141 -15.57544618 11.09860029 -10.78515625 7.42773438 C-10.09292969 6.89728516 -9.40070313 6.36683594 -8.6875 5.8203125 C-7.76517578 5.11285889 -7.76517578 5.11285889 -6.82421875 4.39111328 C-5.92123047 3.70251221 -5.92123047 3.70251221 -5 3 C-4.28457031 2.44683105 -3.56914062 1.89366211 -2.83203125 1.32373047 C-1 0 -1 0 0 0 Z " fill="#8C27D9" transform="translate(327,50)"/>
<path d="M0 0 C3.66156799 3.02781406 7.00356382 6.30920709 10.31982422 9.70849609 C11.08166016 10.46130859 11.84349609 11.21412109 12.62841797 11.98974609 C26.62065708 26.59034342 29.78139557 46.32565965 29.53466797 65.75146484 C29.35349819 71.72331577 28.33066196 77.07976554 26.31982422 82.70849609 C25.96791016 83.69978516 25.61599609 84.69107422 25.25341797 85.71240234 C18.37338175 103.49150584 6.0789799 118.47245865 -11.43017578 126.58349609 C-13.17272199 127.30997309 -14.92226617 128.02002685 -16.68017578 128.70849609 C-17.74365234 129.15128906 -17.74365234 129.15128906 -18.82861328 129.60302734 C-27.15155991 132.9420751 -35.18433004 134.0369161 -44.11767578 133.95849609 C-45.43348633 133.97009766 -45.43348633 133.97009766 -46.77587891 133.98193359 C-66.20043498 133.92467624 -83.35843183 126.07413025 -97.52001953 112.96630859 C-113.23781614 96.53794252 -119.25909417 77.48919378 -118.96142578 55.19287109 C-118.56209423 43.70010895 -115.15759052 32.80444102 -109.68017578 22.70849609 C-109.28572266 21.97759766 -108.89126953 21.24669922 -108.48486328 20.49365234 C-100.86911896 7.88435111 -88.39795542 -3.03374294 -74.68017578 -8.29150391 C-73.92478516 -8.62150391 -73.16939453 -8.95150391 -72.39111328 -9.29150391 C-49.04922683 -19.28401717 -20.18531922 -15.51588763 0 0 Z " fill="#DEE3E3" transform="translate(209.68017578125,118.29150390625)"/>
<path d="M0 0 C3.78710224 1.26236741 4.56841222 2.82356946 6.9375 6 C17.64084961 19.35320801 33.77027823 28.51590661 50.79418945 30.81469727 C55.82802001 31.23757246 60.89029796 31.09980166 65.9375 31.0625 C67.09830078 31.05798828 68.25910156 31.05347656 69.45507812 31.04882812 C72.30343934 31.03710647 75.15169222 31.0206976 78 31 C75 33 75 33 61 34 C61.33 68.98 61.66 103.96 62 140 C52.99065327 141.12616834 52.99065327 141.12616834 49.29296875 139.515625 C48.46853271 139.16306641 47.64409668 138.81050781 46.79467773 138.44726562 C45.93430908 138.05216797 45.07394043 137.65707031 44.1875 137.25 C43.27750244 136.84458984 42.36750488 136.43917969 41.42993164 136.02148438 C27.31998872 129.58267029 14.03320896 121.80421621 2 112 C0.99195313 111.19433594 -0.01609375 110.38867188 -1.0546875 109.55859375 C-14.98129377 98.23839947 -27.38790625 85.46468261 -38 71 C-38.43006348 70.42540039 -38.86012695 69.85080078 -39.30322266 69.25878906 C-45.57893375 60.87090237 -50.99479656 52.19950799 -56 43 C-47.55971895 36.21074285 -38.92378626 29.67416919 -30.25 23.1875 C-24.41359679 18.82266245 -18.60236782 14.42640285 -12.8125 10 C-12.10577148 9.46012451 -11.39904297 8.92024902 -10.67089844 8.36401367 C-10.00219727 7.85201416 -9.33349609 7.34001465 -8.64453125 6.8125 C-8.01498535 6.33296875 -7.38543945 5.8534375 -6.73681641 5.359375 C-5.18375662 4.143823 -3.68691341 2.85723008 -2.19921875 1.5625 C-1.47347656 1.046875 -0.74773437 0.53125 0 0 Z " fill="#C73DE6" transform="translate(102,220)"/>
<path d="M0 0 C5.96050862 5.11627276 9.53918201 11.61754604 12 19 C12.12117236 21.26845929 12.17540383 23.54083894 12.1875 25.8125 C12.20167969 27.01519531 12.21585937 28.21789062 12.23046875 29.45703125 C12 33 12 33 10.92578125 36.07421875 C9.77252716 39.71889096 9.89367997 41.32807115 11 45 C12.96980538 47.49572418 15.2931152 49.54271 17.66015625 51.65625 C19.0253866 52.93872375 20.38927743 54.22262466 21.75195312 55.5078125 C23.89961091 57.50729684 26.05570901 59.49389276 28.23754883 61.45605469 C41.07399211 73.06796404 41.07399211 73.06796404 41.93310547 79.08984375 C41.93353895 82.53339745 41.70208326 85.63417825 41 89 C37.04172765 89.05785647 33.0835633 89.09354717 29.125 89.125 C27.99707031 89.14175781 26.86914062 89.15851563 25.70703125 89.17578125 C24.09248047 89.18544922 24.09248047 89.18544922 22.4453125 89.1953125 C21.45031738 89.20578613 20.45532227 89.21625977 19.43017578 89.22705078 C17 89 17 89 15 87 C14.43479997 84.34462628 14.26211802 81.70855287 14 79 C13.36191406 78.86722656 12.72382813 78.73445313 12.06640625 78.59765625 C10.82697266 78.33275391 10.82697266 78.33275391 9.5625 78.0625 C8.73878906 77.88847656 7.91507813 77.71445313 7.06640625 77.53515625 C5 77 5 77 4 76 C3.68076508 73.9427083 3.48838648 71.88386479 3.28125 69.8125 C3.18001957 67.9832467 3.18001957 67.9832467 2 67 C0.62656932 66.89389806 -0.74902569 66.81530048 -2.125 66.75 C-6.52657642 66.33799597 -8.32816425 64.92376865 -11.7421875 62.12109375 C-14.97081575 60.51795135 -18.15548625 60.62410489 -21.6875 60.5625 C-31.24885468 60.32633542 -38.76760502 57.24290919 -45.9375 50.75 C-53.60614403 42.35011608 -55.40971461 32.89337438 -55.1953125 21.9453125 C-54.68655282 11.6683669 -49.48213955 5.90908551 -42 -1 C-28.48137749 -10.55120068 -13.22533535 -8.95854978 0 0 Z " fill="#FE8002" transform="translate(168,134)"/>
<path d="M0 0 C-3 2 -3 2 -6.375 2.9375 C-9.91998397 3.97654703 -12.16986233 4.64818703 -15 7 C-15.48449293 9.78992936 -15.63241795 11.96691422 -15.55859375 14.75390625 C-15.55626236 15.52822495 -15.55393097 16.30254364 -15.55152893 17.10032654 C-15.54177369 18.74888033 -15.51994543 20.39739966 -15.48706055 22.0456543 C-15.4386977 24.50167682 -15.42563744 26.95565931 -15.41992188 29.41210938 C-15.32382438 42.75653411 -13.92195705 55.80218529 -12 69 C-11.83725586 70.13099121 -11.67451172 71.26198242 -11.50683594 72.42724609 C-7.77683587 98.10149887 -3.15567012 123.31580091 3.36865234 148.44921875 C3.95346635 150.81199399 4.44781176 153.17630916 4.92578125 155.5625 C5.83319001 159.7440257 7.31448632 163.55300946 8.96044922 167.49511719 C9.95326676 169.88739244 10.86637031 172.29353335 11.75390625 174.7265625 C15.42151218 184.70277492 19.38375067 194.53035371 23.6875 204.25 C24.13875244 205.30396973 24.59000488 206.35793945 25.05493164 207.44384766 C25.49442139 208.41628418 25.93391113 209.3887207 26.38671875 210.390625 C26.77045654 211.25719727 27.15419434 212.12376953 27.54956055 213.01660156 C28.88055781 215.25746002 28.88055781 215.25746002 31.66333008 215.78808594 C32.43443115 215.85801758 33.20553223 215.92794922 34 216 C32.6875 217.5 32.6875 217.5 31 219 C30.01 219 29.02 219 28 219 C6.58511867 176.9092124 -6.07099993 132.5957531 -12.75 85.875 C-12.85114105 85.16776794 -12.9522821 84.46053589 -13.05648804 83.73187256 C-13.7501603 78.82671582 -14.38667276 73.91578243 -15 69 C-15.09396057 68.2721228 -15.18792114 67.54424561 -15.284729 66.79431152 C-16.86685993 54.35937678 -17.37266217 42.03687155 -17.37060547 29.50537109 C-17.37507741 26.44706325 -17.41184835 23.39009473 -17.44921875 20.33203125 C-17.45507139 18.37760903 -17.45905114 16.42318008 -17.4609375 14.46875 C-17.47530853 13.55951782 -17.48967957 12.65028564 -17.50448608 11.71350098 C-17.45888471 5.49290691 -17.45888471 5.49290691 -15.10986328 2.96972656 C-12.91818586 1.96239693 -10.78824576 1.01797289 -8.5 0.25 C-7.7471875 -0.01296875 -6.994375 -0.2759375 -6.21875 -0.546875 C-3.77699383 -1.04554351 -2.33886852 -0.78671032 0 0 Z " fill="#42E6B8" transform="translate(17,43)"/>
<path d="M0 0 C-3 2 -3 2 -6.375 2.9375 C-9.91998397 3.97654703 -12.16986233 4.64818703 -15 7 C-15.48449293 9.78992936 -15.63241795 11.96691422 -15.55859375 14.75390625 C-15.55626236 15.52822495 -15.55393097 16.30254364 -15.55152893 17.10032654 C-15.54177369 18.74888033 -15.51994543 20.39739966 -15.48706055 22.0456543 C-15.4386977 24.50167682 -15.42563744 26.95565931 -15.41992188 29.41210938 C-15.31539025 43.92772597 -13.67455544 58.13372418 -11.46484375 72.47265625 C-10.19676607 81.10497764 -9.75786172 89.26956971 -10 98 C-10.33 98 -10.66 98 -11 98 C-11.63047671 93.56326106 -12.2532867 89.12547472 -12.875 84.6875 C-13.04902344 83.46353516 -13.22304687 82.23957031 -13.40234375 80.97851562 C-13.95909551 76.98846137 -14.48880568 72.99609811 -15 69 C-15.13991364 67.92555634 -15.13991364 67.92555634 -15.28265381 66.82940674 C-16.8682215 54.38367402 -17.37266394 42.04762244 -17.37060547 29.50537109 C-17.37507741 26.44706325 -17.41184835 23.39009473 -17.44921875 20.33203125 C-17.45507139 18.37760903 -17.45905114 16.42318008 -17.4609375 14.46875 C-17.47530853 13.55951782 -17.48967957 12.65028564 -17.50448608 11.71350098 C-17.45888471 5.49290691 -17.45888471 5.49290691 -15.10986328 2.96972656 C-12.91818586 1.96239693 -10.78824576 1.01797289 -8.5 0.25 C-7.7471875 -0.01296875 -6.994375 -0.2759375 -6.21875 -0.546875 C-3.77699383 -1.04554351 -2.33886852 -0.78671032 0 0 Z " fill="#4DDEBE" transform="translate(17,43)"/>
<path d="M0 0 C2.81374263 1.94797566 3.79326562 3.10415102 4.5625 6.4375 C3.7391072 10.18851166 1.98886562 11.67532674 -1 14 C-3.5 14.625 -3.5 14.625 -6 14 C-8.875 11.875 -8.875 11.875 -11 9 C-11 5.76578825 -10.53173428 3.88622381 -8.875 1.125 C-5.83167192 -0.70099685 -3.45750445 -0.42460581 0 0 Z " fill="#ECCBBE" transform="translate(141,142)"/>
<path d="M0 0 C2.42785631 2.17581642 3.61780763 4.02880625 4.76171875 7.0703125 C5.07197998 7.87686279 5.38224121 8.68341309 5.7019043 9.5144043 C6.18977417 10.80664917 6.18977417 10.80664917 6.6875 12.125 C9.39093455 19.03784302 12.1434655 25.91662952 15.1875 32.6875 C15.49582764 33.41146973 15.80415527 34.13543945 16.12182617 34.88134766 C17.10304953 37.13226695 17.10304953 37.13226695 19 40 C21.61082747 41.07223895 21.61082747 41.07223895 24 41 C22.6875 42.5 22.6875 42.5 21 44 C20.01 44 19.02 44 18 44 C16.23314751 40.39620948 14.47373678 36.78888169 12.72045898 33.1784668 C11.8375197 31.36391854 10.94911154 29.55203458 10.06054688 27.74023438 C0 6.9939089 0 6.9939089 0 0 Z " fill="#2ADFB0" transform="translate(27,218)"/>
<path d="M0 0 C0.28900708 16.44894922 -0.42932834 32.6249125 -2 49 C-2.33 49 -2.66 49 -3 49 C-3.33 44.71 -3.66 40.42 -4 36 C-3.34 36 -2.68 36 -2 36 C-2.165 35.03964844 -2.33 34.07929687 -2.5 33.08984375 C-3.25925722 27.77370647 -3.04642264 22.47087843 -2.9609375 17.11523438 C-2.91120381 11.97194154 -3.25183779 7.09101005 -4 2 C-1 0 -1 0 0 0 Z " fill="#634096" transform="translate(327,50)"/>
<path d="M0 0 C-3 2 -3 2 -6.375 2.9375 C-11.05012001 4.30524894 -11.05012001 4.30524894 -15 7 C-15.44420071 9.84524313 -15.56251548 12.08723812 -15.453125 14.921875 C-15.44367859 15.70008606 -15.43423218 16.47829712 -15.42449951 17.28009033 C-15.38989755 19.7711199 -15.32120436 22.2597718 -15.25 24.75 C-15.19983137 27.2256288 -15.15676438 29.70122505 -15.11834717 32.17706299 C-15.09221746 33.71657435 -15.05820039 35.25597934 -15.01495361 36.79510498 C-14.91156821 41.32569749 -15.24054422 45.52993435 -16 50 C-16.33 50 -16.66 50 -17 50 C-17.10130235 43.64637854 -17.17142368 37.29296477 -17.21972656 30.9387207 C-17.23985958 28.77653216 -17.26716833 26.61439817 -17.30175781 24.45239258 C-17.35020117 21.34703116 -17.37295172 18.24238864 -17.390625 15.13671875 C-17.41127014 14.16788254 -17.43191528 13.19904633 -17.45318604 12.20085144 C-17.45348816 11.3001442 -17.45379028 10.39943695 -17.45410156 9.47143555 C-17.46298401 8.67867722 -17.47186646 7.88591888 -17.48101807 7.06913757 C-17 5 -17 5 -15.11029053 3.28205872 C-12.93648761 1.9614145 -10.9097284 1.05874446 -8.5 0.25 C-7.7471875 -0.01296875 -6.994375 -0.2759375 -6.21875 -0.546875 C-3.77699383 -1.04554351 -2.33886852 -0.78671032 0 0 Z " fill="#6AD2C7" transform="translate(17,43)"/>
<path d="M0 0 C2 1 2 1 3 3.9140625 C3.33 5.13867188 3.66 6.36328125 4 7.625 C4.33 8.83414063 4.66 10.04328125 5 11.2890625 C5.33 12.51367188 5.66 13.73828125 6 15 C7.53329739 20.53926408 9.35105483 25.92095834 11.29296875 31.328125 C12 34 12 34 11 37 C9.34413449 34.51620174 8.50210873 32.87256107 7.59765625 30.12109375 C7.34838379 29.36924805 7.09911133 28.61740234 6.84228516 27.84277344 C6.4562915 26.65216309 6.4562915 26.65216309 6.0625 25.4375 C5.79743652 24.62700195 5.53237305 23.81650391 5.25927734 22.98144531 C4.73655234 21.37696549 4.2163007 19.7716774 3.69873047 18.16552734 C3.12089965 16.37469597 2.53253859 14.58726607 1.94140625 12.80078125 C0.53185893 8.39678892 -0.3701482 4.68854387 0 0 Z " fill="#33E5AE" transform="translate(16,182)"/>
<path d="M0 0 C6.57772186 0.66243724 12.6457395 2.5902225 18.9375 4.5625 C20.53561523 5.0565332 20.53561523 5.0565332 22.16601562 5.56054688 C24.77884238 6.369 27.39006622 7.18226535 30 8 C25.67110921 9.33960973 22.25810401 8.28980744 18 7.125 C16.93265625 6.84462891 16.93265625 6.84462891 15.84375 6.55859375 C13.89407197 6.04571203 11.94692478 5.52323604 10 5 C8.66728569 4.66420026 7.33411097 4.33020722 6 4 C6 3.34 6 2.68 6 2 C3.03 1.505 3.03 1.505 0 1 C0 0.67 0 0.34 0 0 Z " fill="#61ADE3" transform="translate(219,15)"/>
<path d="M0 0 C0.33 0 0.66 0 1 0 C0.38472483 11.43563159 -1.29424625 22.68554124 -3 34 C-3.33 34 -3.66 34 -4 34 C-4.19658808 32.58456585 -4.38187546 31.16755969 -4.5625 29.75 C-4.66691406 28.96109375 -4.77132813 28.1721875 -4.87890625 27.359375 C-5.00102173 24.98009281 -4.65530174 23.2717127 -4 21 C-4 20.34 -4 19.68 -4 19 C-3.34 19 -2.68 19 -2 19 C-2.02320313 18.04738281 -2.04640625 17.09476563 -2.0703125 16.11328125 C-2.08835937 14.85902344 -2.10640625 13.60476562 -2.125 12.3125 C-2.14820313 11.07113281 -2.17140625 9.82976562 -2.1953125 8.55078125 C-2.01032021 5.18762143 -1.45767895 3.0014413 0 0 Z " fill="#6B4BAF" transform="translate(323,103)"/>
<path d="M0 0 C0.66 0.33 1.32 0.66 2 1 C2.29648437 1.89203125 2.59296875 2.7840625 2.8984375 3.703125 C4.05811752 7.17394037 5.59111618 9.720099 7.625 12.75 C11 17.79183673 11 17.79183673 11 20 C7.50797189 18.83599063 7.27269143 18.25731614 5.51953125 15.18359375 C5.07802734 14.41982422 4.63652344 13.65605469 4.18164062 12.86914062 C3.72982422 12.06669922 3.27800781 11.26425781 2.8125 10.4375 C2.34908203 9.63119141 1.88566406 8.82488281 1.40820312 7.99414062 C0.26396754 6.00057554 -0.87163231 4.00257569 -2 2 C-1.34 1.34 -0.68 0.68 0 0 Z " fill="#DC45E7" transform="translate(48,261)"/>
<path d="M0 0 C0.66 0.33 1.32 0.66 2 1 C-0.39707314 9.17824952 -4.08858772 16.46651278 -8 24 C-8.66 23.01 -9.32 22.02 -10 21 C-9.34 21 -8.68 21 -8 21 C-7.5359375 19.081875 -7.5359375 19.081875 -7.0625 17.125 C-6.52394756 14.89898325 -6.0263 13.05260001 -5 11 C-4.34 11 -3.68 11 -3 11 C-2.87625 10.113125 -2.7525 9.22625 -2.625 8.3125 C-2.05587264 5.29612498 -1.23385564 2.79673946 0 0 Z " fill="#640FB6" transform="translate(288,240)"/>
<path d="M0 0 C4.46149465 4.38940586 8.62718188 9.00019797 12.79296875 13.671875 C14.77817757 16.03135419 14.77817757 16.03135419 17 17 C17 17.66 17 18.32 17 19 C13.20144921 17.43122496 10.79977997 15.03476878 7.9375 12.125 C7.08027344 11.26132812 6.22304687 10.39765625 5.33984375 9.5078125 C0 3.78464107 0 3.78464107 0 0 Z " fill="#D742E8" transform="translate(72,298)"/>
<path d="M0 0 C6.48881159 1.02954004 13.5058973 2.17039766 19 6 C19.74609375 8.1328125 19.74609375 8.1328125 20 10 C19.67 9.34 19.34 8.68 19 8 C16.95847066 7.22945323 16.95847066 7.22945323 14.5 6.625 C9.42396271 5.19873592 4.75445544 3.2623858 0 1 C0 0.67 0 0.34 0 0 Z " fill="#42A9EF" transform="translate(306,41)"/>
<path d="M0 0 C2.64404244 3.15309659 3.9568165 6.16847356 5.25 10.0625 C5.60578125 11.10535156 5.9615625 12.14820313 6.328125 13.22265625 C7 16 7 16 6 19 C4.12501563 16.18752345 3.04059662 13.77642791 1.875 10.625 C1.52179687 9.68914062 1.16859375 8.75328125 0.8046875 7.7890625 C0.00986798 5.03420261 -0.15533287 2.84776932 0 0 Z " fill="#47D3AD" transform="translate(21,200)"/>
<path d="M0 0 C-3 2 -3 2 -6.375 2.9375 C-9.72639947 3.91980674 -12.07304357 5.16019882 -15 7 C-15.66 7 -16.32 7 -17 7 C-15.9681358 4.11685002 -15.29325381 3.15500558 -12.5390625 1.69921875 C-11.57742187 1.36535156 -10.61578125 1.03148437 -9.625 0.6875 C-8.66851562 0.34074219 -7.71203125 -0.00601563 -6.7265625 -0.36328125 C-3.97200522 -1.00653746 -2.6163432 -0.96097914 0 0 Z " fill="#57D4C0" transform="translate(17,43)"/>
<path d="M0 0 C0.33 0 0.66 0 1 0 C1.53107314 2.74837849 2.05015881 5.49812375 2.5625 8.25 C2.71396484 9.02730469 2.86542969 9.80460938 3.02148438 10.60546875 C3.16005859 11.35957031 3.29863281 12.11367187 3.44140625 12.890625 C3.57232666 13.58188477 3.70324707 14.27314453 3.83813477 14.98535156 C4.01710362 17.21287942 3.65206197 18.87506962 3 21 C2.67 18.36 2.34 15.72 2 13 C1.34 13 0.68 13 0 13 C0 8.71 0 4.42 0 0 Z " fill="#3BE7B9" transform="translate(7,134)"/>
<path d="M0 0 C0.33 0 0.66 0 1 0 C3.44166784 6.83085645 4.41640288 12.7515055 4 20 C0.67554357 13.93775593 -0.36108506 6.86061613 0 0 Z " fill="#4ED6B2" transform="translate(8,147)"/>
<path d="M0 0 C0.66 0 1.32 0 2 0 C3.18681726 3.56045177 3.09689832 6.43808337 3.0625 10.1875 C3.05347656 11.45980469 3.04445313 12.73210937 3.03515625 14.04296875 C3.02355469 15.01878906 3.01195312 15.99460938 3 17 C2.67 17 2.34 17 2 17 C1.34 11.39 0.68 5.78 0 0 Z " fill="#5DCFB3" transform="translate(4,124)"/>
<path d="M0 0 C0.99 0.495 0.99 0.495 2 1 C2 1.99 2 2.98 2 4 C2.99 4.33 3.98 4.66 5 5 C5.33 5.99 5.66 6.98 6 8 C7.49985609 9.66710346 7.49985609 9.66710346 9 11 C8.01 11 7.02 11 6 11 C4.39453125 9.35546875 4.39453125 9.35546875 2.8125 7.1875 C2.28269531 6.47980469 1.75289062 5.77210938 1.20703125 5.04296875 C0 3 0 3 0 0 Z " fill="#DB43E7" transform="translate(62,285)"/>
<path d="M0 0 C1.60568666 0.28317926 3.20952047 0.57687791 4.8125 0.875 C6.15248047 1.11863281 6.15248047 1.11863281 7.51953125 1.3671875 C10 2 10 2 13 4 C8.17639811 4.19294408 4.50353262 3.75747614 0 2 C0 1.34 0 0.68 0 0 Z " fill="#63B6E4" transform="translate(176,2)"/>
<path d="M0 0 C0.66 0.33 1.32 0.66 2 1 C1.33501617 5.38889325 -0.18757677 8.9811485 -2 13 C-2.66 12.01 -3.32 11.02 -4 10 C-3.525625 9.0925 -3.05125 8.185 -2.5625 7.25 C-1.35371179 4.73572051 -0.52006114 2.70431791 0 0 Z " fill="#5D0CB0" transform="translate(293,228)"/>
<path d="M0 0 C0.33 0 0.66 0 1 0 C0.67 5.28 0.34 10.56 0 16 C-0.33 16 -0.66 16 -1 16 C-1.33 11.71 -1.66 7.42 -2 3 C-1.34 3 -0.68 3 0 3 C0 2.01 0 1.02 0 0 Z " fill="#7462AB" transform="translate(325,83)"/>
<path d="M0 0 C0.99 0 1.98 0 3 0 C6 5.75 6 5.75 6 8 C5.01 7.67 4.02 7.34 3 7 C1.3125 3.4375 1.3125 3.4375 0 0 Z " fill="#21E4B8" transform="translate(35,241)"/>
<path d="M0 0 C1.60080151 4.00200378 0.29279692 7.04556236 -1 11 C-2.42944945 8.64561267 -3.08661261 7.51967567 -2.625 4.75 C-2.41875 4.1725 -2.2125 3.595 -2 3 C-1.34 3 -0.68 3 0 3 C0 2.01 0 1.02 0 0 Z " fill="#5E0FBB" transform="translate(308,185)"/>
<path d="M0 0 C0.66 0.33 1.32 0.66 2 1 C2.73075648 3.3140622 3.40138258 5.64828869 4 8 C1 7 1 7 -0.6875 3.9375 C-1.120625 2.968125 -1.55375 1.99875 -2 1 C-1.34 0.67 -0.68 0.34 0 0 Z " fill="#E354EA" transform="translate(48,261)"/>
</svg>
